<svg width="659px" height="187px" xmlns="http://www.w3.org/2000/svg"><g fill="none" fill-rule="evenodd"><path fill="#FFF" d="M461 101l50-10-12-79 89 14V0l71 62-71 52V79l-59-4 11 39-79 9z"/><path fill="#FFF" d="M1 26L461 0l63 132-474 55z"/><path fill="#000" d="M19 0l510 29-47 126-422 14z"/><text font-family="ToppanBunkyuMidashiGothicStdN-ExtraBold, Toppan Bunkyu Midashi Gothic" font-size="106" font-weight="600" letter-spacing="0.367458735" fill="#FFF" transform="translate(-276 -271)"><tspan x="342" y="390">A</tspan></text><text font-family="ToppanBunkyuMidashiGothicStdN-ExtraBold, Toppan Bunkyu Midashi Gothic" font-size="106" font-weight="600" letter-spacing="0.367458735" fill="#FFF" transform="translate(-276 -271)"><tspan x="544" y="390">E</tspan></text><text font-family="ToppanBunkyuMidashiGothicStdN-ExtraBold, Toppan Bunkyu Midashi Gothic" font-size="106" font-weight="600" letter-spacing="0.367458735" fill="#FFF" transform="translate(-276 -271)"><tspan x="603" y="390">S</tspan></text><text font-family="ToppanBunkyuMidashiGothicStdN-ExtraBold, Toppan Bunkyu Midashi Gothic" font-size="106" font-weight="600" letter-spacing="0.367458735" fill="#FFF" transform="translate(-276 -271)"><tspan x="477" y="390">C</tspan></text><text font-family="ToppanBunkyuMidashiGothicStdN-ExtraBold, Toppan Bunkyu Midashi Gothic" font-size="106" font-weight="600" letter-spacing="0.367458735" fill="#FFF" transform="translate(-276 -271)"><tspan x="410" y="390">C</tspan></text><text font-family="ToppanBunkyuMidashiGothicStdN-ExtraBold, Toppan Bunkyu Midashi Gothic" font-size="106" font-weight="600" letter-spacing="0.367458735" fill="#FFF" transform="translate(-276 -271)"><tspan x="667" y="390">S</tspan></text></g></svg>