<svg width="1105px" height="295px" xmlns="http://www.w3.org/2000/svg"><g fill="none" fill-rule="evenodd"><path fill="none" d="M0 0h1105v295H0z"/><path fill="#FFF" fill-rule="nonzero" d="M701 156l57-11-14-90 101 16V41l81 71-81 59v-40l-67-5 13 45-90 10z"/><path fill="#FFF" fill-rule="nonzero" d="M178 71l523-30 72 150-539 63z"/><path fill="#000" fill-rule="nonzero" d="M234 41l580 33-53 144-480 16z"/><text fill="#FFF" font-family="ToppanBunkyuMidashiGothicStdN-ExtraBold, Toppan Bunkyu Midashi Gothic" font-size="106" font-weight="600" transform="translate(0 23)"><tspan x="323" y="157">A</tspan></text><text fill="#FFF" font-family="ToppanBunkyuMidashiGothicStdN-ExtraBold, Toppan Bunkyu Midashi Gothic" font-size="106" font-weight="600" transform="translate(0 23)"><tspan x="526" y="156">E</tspan></text><text fill="#FFF" font-family="ToppanBunkyuMidashiGothicStdN-ExtraBold, Toppan Bunkyu Midashi Gothic" font-size="106" font-weight="600" transform="translate(0 23)"><tspan x="585" y="157">S</tspan></text><text fill="#FFF" font-family="ToppanBunkyuMidashiGothicStdN-ExtraBold, Toppan Bunkyu Midashi Gothic" font-size="106" font-weight="600" transform="translate(0 23)"><tspan x="459" y="157">C</tspan></text><text fill="#FFF" font-family="ToppanBunkyuMidashiGothicStdN-ExtraBold, Toppan Bunkyu Midashi Gothic" font-size="106" font-weight="600" transform="translate(0 23)"><tspan x="391" y="157">C</tspan></text><text fill="#FFF" font-family="ToppanBunkyuMidashiGothicStdN-ExtraBold, Toppan Bunkyu Midashi Gothic" font-size="106" font-weight="600" transform="translate(0 23)"><tspan x="649" y="157">S</tspan></text></g></svg>