<svg width="1101px" height="294px" xmlns="http://www.w3.org/2000/svg"><g fill="none" fill-rule="evenodd"><path fill="none" d="M0 0h1101v294H0z"/><path fill="#FFF" fill-rule="nonzero" d="M659 157l50-10-12-79 89 14V56l71 62-71 52v-35l-59-4 11 39-79 9z"/><path fill="#FFF" fill-rule="nonzero" d="M199 82l460-26 63 132-474 55z"/><path fill="#000" fill-rule="nonzero" d="M248 56l510 29-47 126-422 14z"/><text transform="translate(295 82)" fill="#FFF" font-family="ToppanBunkyuMidashiGothicStdN-ExtraBold, Toppan Bunkyu Midashi Gothic" font-size="106" font-weight="600"><tspan x="0" y="93">A</tspan></text><text transform="translate(497 82)" fill="#FFF" font-family="ToppanBunkyuMidashiGothicStdN-ExtraBold, Toppan Bunkyu Midashi Gothic" font-size="106" font-weight="600"><tspan x="0" y="93">E</tspan></text><text transform="translate(556 82)" fill="#FFF" font-family="ToppanBunkyuMidashiGothicStdN-ExtraBold, Toppan Bunkyu Midashi Gothic" font-size="106" font-weight="600"><tspan x="0" y="93">S</tspan></text><text transform="translate(430 82)" fill="#FFF" font-family="ToppanBunkyuMidashiGothicStdN-ExtraBold, Toppan Bunkyu Midashi Gothic" font-size="106" font-weight="600"><tspan x="0" y="93">C</tspan></text><text transform="translate(363 82)" fill="#FFF" font-family="ToppanBunkyuMidashiGothicStdN-ExtraBold, Toppan Bunkyu Midashi Gothic" font-size="106" font-weight="600"><tspan x="0" y="93">C</tspan></text><text transform="translate(620 82)" fill="#FFF" font-family="ToppanBunkyuMidashiGothicStdN-ExtraBold, Toppan Bunkyu Midashi Gothic" font-size="106" font-weight="600"><tspan x="0" y="93">S</tspan></text></g></svg>