<svg width="1101px" height="294px" xmlns="http://www.w3.org/2000/svg"><g fill="none" fill-rule="evenodd"><path fill="none" d="M0 0h1101v294H0z"/><path fill="#FFF" d="M778 126l38-6-18-88 106 16V10l84 73-84 43V96l-66-13 22 88-82 20zM136 55l642-19v193l-560 35z"/><path fill="#000" d="M184 36l632 20 45 149-704 32z"/><path fill="#B40000" d="M117 100l743 15 18 76-660 35z"/><text transform="rotate(-13 250 142)" font-family="ToppanBunkyuMidashiGothicStdN-ExtraBold, Toppan Bunkyu Midashi Gothic" font-size="179" font-weight="600" letter-spacing="0.620519939" fill="#FFF"><tspan x="187.18174" y="208">A</tspan></text><text transform="rotate(5 558 131)" font-family="ToppanBunkyuMidashiGothicStdN-ExtraBold, Toppan Bunkyu Midashi Gothic" font-size="136" font-weight="600" letter-spacing="0.47145649" fill="#FFF"><tspan x="517.780272" y="168">E</tspan></text><text transform="rotate(8 645 147)" font-family="ToppanBunkyuMidashiGothicStdN-ExtraBold, Toppan Bunkyu Midashi Gothic" font-size="136" font-weight="600" letter-spacing="0.47145649" fill="#FFF"><tspan x="600.064272" y="185">S</tspan></text><text font-family="ToppanBunkyuMidashiGothicStdN-ExtraBold, Toppan Bunkyu Midashi Gothic" font-size="175" font-weight="600" letter-spacing="0.606653571" fill="#FFF"><tspan x="399" y="182">C</tspan></text><text transform="rotate(-9 355 126)" font-family="ToppanBunkyuMidashiGothicStdN-ExtraBold, Toppan Bunkyu Midashi Gothic" font-size="136" font-weight="600" letter-spacing="0.47145649" fill="#FFF"><tspan x="306.596272" y="164">C</tspan></text><text transform="rotate(16 751 113)" font-family="ToppanBunkyuMidashiGothicStdN-ExtraBold, Toppan Bunkyu Midashi Gothic" font-size="172" font-weight="600" letter-spacing="0.596253796" fill="#FFF"><tspan x="698" y="183">S</tspan></text></g></svg>