<svg width="1328px" height="398px" xmlns="http://www.w3.org/2000/svg"><g fill="none" fill-rule="evenodd"><path fill="#FFF" d="M999 183l59-11-29-138 167 26V0l132 114-132 69v-49l-104-20 35 138-128 32z"/><path fill="#FFF" d="M0 70l1005-30v303l-877 55z"/><path fill="#000" d="M85 101l889-21 96 240L15 376z"/><path fill="#B40000" d="M0 159l1024-30v139l-909 64z"/><text transform="rotate(-13 -520 792)" font-family="ToppanBunkyuMidashiGothicStdN-ExtraBold, Toppan Bunkyu Midashi Gothic" font-size="266" font-weight="600" letter-spacing="0.922113429" fill="#FFF"><tspan x="192" y="483">A</tspan></text><text transform="rotate(5 2670 -1035)" font-family="ToppanBunkyuMidashiGothicStdN-ExtraBold, Toppan Bunkyu Midashi Gothic" font-size="239" font-weight="600" letter-spacing="0.828515449" fill="#FFF"><tspan x="697" y="435">E</tspan></text><text transform="rotate(8 2075 -535)" font-family="ToppanBunkyuMidashiGothicStdN-ExtraBold, Toppan Bunkyu Midashi Gothic" font-size="235" font-weight="600" letter-spacing="0.814649082" fill="#FFF"><tspan x="832" y="448">S</tspan></text><text font-family="ToppanBunkyuMidashiGothicStdN-ExtraBold, Toppan Bunkyu Midashi Gothic" font-size="235" font-weight="600" letter-spacing="0.814649082" fill="#FFF" transform="translate(-113 -171)"><tspan x="542" y="438">C</tspan></text><text transform="rotate(-9 -683 993)" font-family="ToppanBunkyuMidashiGothicStdN-ExtraBold, Toppan Bunkyu Midashi Gothic" font-size="235" font-weight="600" letter-spacing="0.814649082" fill="#FFF"><tspan x="377" y="450">C</tspan></text><text transform="rotate(16 1622 -103)" font-family="ToppanBunkyuMidashiGothicStdN-ExtraBold, Toppan Bunkyu Midashi Gothic" font-size="235" font-weight="600" letter-spacing="0.814649082" fill="#FFF"><tspan x="993" y="474">S</tspan></text></g></svg>