<svg width="1101px" height="294px" xmlns="http://www.w3.org/2000/svg"><g fill="none" fill-rule="evenodd"><path fill="none" d="M0 0h1101v294H0z"/><path fill="#FFF" d="M823 132l41-7-20-96 115 18V5l92 79-92 48V98l-72-14 24 96-88 22zM125 54l698-21v210l-609 38z"/><path fill="#000" d="M177 33l686 22 50 162-765 35z"/><path fill="#B40000" d="M105 103l807 16 20 83-718 38z"/><text transform="rotate(-13 -128 1416)" font-family="ToppanBunkyuMidashiGothicStdN-ExtraBold, Toppan Bunkyu Midashi Gothic" font-size="160" font-weight="600" letter-spacing="0.554654694" fill="#FFF"><tspan x="471.902673" y="344">A</tspan></text><text transform="rotate(5 2072 -2897)" font-family="ToppanBunkyuMidashiGothicStdN-ExtraBold, Toppan Bunkyu Midashi Gothic" font-size="160" font-weight="600" letter-spacing="0.554654694" fill="#FFF"><tspan x="796.682673" y="301">E</tspan></text><text transform="rotate(8 1667 -1713)" font-family="ToppanBunkyuMidashiGothicStdN-ExtraBold, Toppan Bunkyu Midashi Gothic" font-size="160" font-weight="600" letter-spacing="0.554654694" fill="#FFF"><tspan x="898.222673" y="329">S</tspan></text><text font-family="ToppanBunkyuMidashiGothicStdN-ExtraBold, Toppan Bunkyu Midashi Gothic" font-size="160" font-weight="600" letter-spacing="0.554654694" fill="#FFF" transform="translate(-269 -119)"><tspan x="684.642673" y="321">C</tspan></text><text transform="rotate(-9 -266 1888)" font-family="ToppanBunkyuMidashiGothicStdN-ExtraBold, Toppan Bunkyu Midashi Gothic" font-size="160" font-weight="600" letter-spacing="0.554654694" fill="#FFF"><tspan x="568.142673" y="298">C</tspan></text><text transform="rotate(16 1347 -767)" font-family="ToppanBunkyuMidashiGothicStdN-ExtraBold, Toppan Bunkyu Midashi Gothic" font-size="160" font-weight="600" letter-spacing="0.554654694" fill="#FFF"><tspan x="1006.22267" y="309">S</tspan></text></g></svg>