<svg width="192" height="209" xmlns="http://www.w3.org/2000/svg"><g fill="#FFF" fill-rule="evenodd"><path d="M47 71c16 9 26 12 30 11 6-2 6-22 9-24 5-4 9-12 10-25 1 12 5 21 11 25 3 3 1 22 6 24s15-2 32-11L96 208 47 71z"/><path d="M70 1C49 24 40 43 43 57c1 9 8 17 20 24 4 2 5 17 3 43-6-16-13-28-19-35C35 73 12 76 4 70c-14-9 8-32 66-69zM122 1c21 23 29 42 27 56-2 9-8 17-20 24-4 3-6 17-3 43 6-16 12-28 19-35 12-16 35-13 43-19 14-9-8-32-66-69z"/><path d="M96 1c24 0 44 19 44 43 0 25-20 44-44 44S52 69 52 44C52 20 72 1 96 1zm0 7a37 37 0 100 74 37 37 0 000-74z"/></g></svg>