<?xml version="1.0" encoding="UTF-8"?><svg width="533px" height="533px" xmlns="http://www.w3.org/2000/svg"><!--Generator: Sketch 60 (88103) - https://sketch.com--><g transform="translate(-1492 -47)" fill="none" fill-rule="evenodd"><circle fill="#FFF" cx="1758.5" cy="313.5" r="266.5"/><g transform="translate(1522 58)"><path d="M158 305c73 22 154 30 169-23 9-34-53-49-33-83s55 25 66-2c25-56-48-124-124-148-87-26-175 9-197 80-21 70 32 149 119 176z" fill="#000"/><circle fill="#FFF" cx="157.42614" cy="80.9942101" r="24.5"/><circle fill="#FFF" cx="92.4261398" cy="139.99421" r="24.5"/><circle fill="#FFF" cx="108.42614" cy="223.99421" r="24.5"/><circle fill="#FFF" cx="197.42614" cy="257.99421" r="24.5"/><circle fill="#FFF" cx="273.92614" cy="115.49421" r="20"/><path fill="#000" d="M399 161l26 13-13 32-186 303-16-11 164-312z"/><path d="M426 108l-47 76 31 18 42-78-26-16z" stroke="#000" stroke-width="8" fill="#FFF"/><path stroke="#000" stroke-width="8" d="M433 118v1l-16 27h0zM439 121v1l-16 27h0zM445 125v1l-16 27h0z"/><path d="M379 189l-38 73 22 12 43-71-27-14z" stroke="#000" fill="#FFF"/><rect fill="#FFF" transform="rotate(31 293 384)" x="290.92614" y="268.49421" width="5" height="232" rx="2.5"/></g></g></svg>