<?xml version="1.0" encoding="UTF-8"?><svg width="990px" height="203px" xmlns="http://www.w3.org/2000/svg"><!--Generator: Sketch 60 (88103) - https://sketch.com--><g fill="none" fill-rule="evenodd"><path d="M745 202L23 181c-4 0-6-3-7-7L1 24a7 7 0 017-7L770 0a7 7 0 017 8l-25 188c-1 4-4 6-7 6z" fill="#B40000"/><path fill="#B40000" d="M753 52l136 27-35-71 135 78-135 79 35-66-164 19z"/><path d="M708 167H12a7 7 0 01-6-10L73 31c1-3 4-4 6-4h663a7 7 0 017 9l-35 126c0 3-3 5-6 5z" fill="#F0F0F0"/><text transform="translate(-442 -44)" font-family="ToppanBunkyuMidashiGothicStdN-ExtraBold, Toppan Bunkyu Midashi Gothic" font-size="90" font-weight="600" letter-spacing="2.80625062" fill="#000"><tspan x="614" y="166">See More</tspan></text></g></svg>