<?xml version="1.0" encoding="UTF-8"?><svg width="852px" height="163px" xmlns="http://www.w3.org/2000/svg"><!--Generator: Sketch 60 (88103) - https://sketch.com--><g fill="none" fill-rule="evenodd"><path d="M733 116L22 163a7 7 0 01-8-8L37 32c1-4 4-6 7-6L754 0a7 7 0 017 9l-22 102c-1 3-3 5-6 5z" fill="#B40000"/><path fill="#B40000" d="M705 45l84 17-21-44 84 49-84 48 21-41-102 13z"/><path d="M704 150H8a7 7 0 01-6-10L69 14c1-3 4-4 6-4h663a7 7 0 017 9l-35 126c0 3-3 5-6 5z" fill="#F0F0F0"/><text transform="translate(-446 -61)" font-family="ToppanBunkyuMidashiGothicStdN-ExtraBold, Toppan Bunkyu Midashi Gothic, Aharoni" font-size="90" font-weight="600" letter-spacing="2.80625062" fill="#000"><tspan x="614" y="166">See More</tspan></text></g></svg>