<?xml version="1.0" encoding="UTF-8"?><svg width="847px" height="170px" xmlns="http://www.w3.org/2000/svg"><!--Generator: Sketch 60 (88103) - https://sketch.com--><g fill="none" fill-rule="evenodd"><path d="M682 141L9 155a7 7 0 01-7-7L1 40c0-4 3-7 7-7l706-16a7 7 0 017 8l-32 111c-1 3-4 5-7 5z" fill="#B40000"/><path fill="#B40000" d="M710 67l79 16-20-41 78 45-78 45 20-38-95 12z"/><path d="M668 153L24 170a7 7 0 01-7-7V49c0-4 3-7 6-7L689 1a7 7 0 018 8l-23 138c0 4-3 6-6 6z" fill="#000"/><text transform="translate(-457 -267)" font-family="ToppanBunkyuMidashiGothicStdN-ExtraBold, Toppan Bunkyu Midashi Gothic, Aharoni" font-size="90" font-weight="600" letter-spacing="2.80625062" fill="#F0F0F0"><tspan x="603" y="388">See More</tspan></text></g></svg>