<?xml version="1.0" encoding="UTF-8"?><svg width="1024px" height="204px" xmlns="http://www.w3.org/2000/svg"><!--Generator: Sketch 60 (88103) - https://sketch.com--><g fill="none" fill-rule="evenodd"><path d="M743 160L51 204c-4 0-7-2-8-6L1 22a7 7 0 017-9L814 0a7 7 0 016 10l-71 147c-1 2-3 3-6 3z" fill="#B40000"/><path fill="#B40000" d="M787 63l136 27-35-71 135 78-135 79 35-66-164 19z"/><path d="M712 156L68 173a7 7 0 01-7-7V52c0-4 3-7 6-7L733 4a7 7 0 018 8l-23 138c0 4-3 6-6 6z" fill="#000"/><text transform="translate(-413 -264)" font-family="ToppanBunkyuMidashiGothicStdN-ExtraBold, Toppan Bunkyu Midashi Gothic, Aharoni" font-size="90" font-weight="600" letter-spacing="2.80625062" fill="#F0F0F0"><tspan x="603" y="388">See More</tspan></text></g></svg>