<?xml version="1.0" encoding="UTF-8"?><svg width="1079px" height="363px" xmlns="http://www.w3.org/2000/svg"><!--Generator: Sketch 60 (88103) - https://sketch.com--><g fill="none" fill-rule="evenodd"><path d="M115 164c-2 0-3 0-4 2L3 353a5 5 0 004 7h1019c2 0 4-1 4-4l45-187a5 5 0 00-4-5H115z" stroke="#540000" stroke-width="5" fill="#B40000"/><path fill="#B40000" d="M805 215L700 99l52-20-59-79 160 117-57 17 80 57z"/><path d="M178 140l846 45a7 7 0 016 11l-85 142c-1 2-4 4-6 4H95a7 7 0 01-7-10l83-188c1-2 4-4 7-4z" fill="#F6F6F6"/><text font-family="ToppanBunkyuMidashiGothicStdN-ExtraBold, Toppan Bunkyu Midashi Gothic" font-size="77" font-weight="600" letter-spacing="2.40090331" fill="#000" transform="translate(-5)"><tspan x="295" y="281">What is me ?</tspan></text></g></svg>