<svg width="731px" height="731px" xmlns="http://www.w3.org/2000/svg">
  <g fill="none" fill-rule="evenodd">
    <path d="M588 650c0 2-3 5-5 5H237l-2-1-99-39a5 5 0 010-9l99-39h348c2 0 5 2 5 5v78zm-356-4v-70a1 1 0 00-2-1l-73 28v17l73 27a1 1 0 002-1zm342-23v-46l-2-2H248l-2 2v46l2 2h324l2-2zM559 103c17 0 30 13 30 30v383c0 17-13 30-30 30H176c-17 0-30-13-30-30V133c0-17 13-30 30-30h383zm-3 77H180c-11 0-20 9-20 20v312c0 11 9 20 20 20h376c11 0 20-9 20-20V200c0-11-9-20-20-20zM363 366c3 0 5 2 5 5v131c0 3-2 5-5 5H195c-3 0-5-2-5-5V371c0-3 2-5 5-5h168zm-3 9H199v124h161V375zm-46 53l3 4 32 58H210l29-44a11 11 0 0118 0l15 19 26-35c4-4 11-5 16-2zm-58-38a18 18 0 110 37 18 18 0 010-37zm83-81a8 8 0 110 16H203a8 8 0 110-16h136zm100-45a8 8 0 110 16H203a8 8 0 110-16h236zm0-40a8 8 0 110 16H203a8 8 0 110-16h236zm121-97H384a16 16 0 000 32h176a16 16 0 100-32zm-290 0a16 16 0 100 32 16 16 0 000-32zm-47 0a16 16 0 100 32 16 16 0 000-32z" fill="#FFF"/>
    <circle fill="#B40000" cx="176" cy="143" r="16"/>
    <path d="M686 0c25 0 45 20 45 45v641c0 25-20 45-45 45H45c-25 0-45-20-45-45V45C0 20 20 0 45 0h641zm-82 27H127C72 27 27 72 27 127v477c0 55 45 100 100 100h477c55 0 100-45 100-100V127c0-55-45-100-100-100z" fill="#FFF"/>
  </g>
</svg>
