<svg width="731px" height="731px" xmlns="http://www.w3.org/2000/svg">
  <g fill="none" fill-rule="evenodd">
    <path d="M686 0c25 0 45 20 45 45v641c0 25-20 45-45 45H45c-25 0-45-20-45-45V45C0 20 20 0 45 0h641zm-82 27H127C72 27 27 72 27 127v477c0 55 45 100 100 100h477c55 0 100-45 100-100V127c0-55-45-100-100-100z" fill="#FFF"/>
    <path d="M602 170c14 0 25 11 25 25v341c0 14-11 25-25 25H130c-14 0-25-11-25-25V195c0-14 11-25 25-25h472zM292 376L134 529a6 6 0 004 10h457a6 6 0 004-10L441 376c-2-2-6-2-8 0l-63 53c-2 2-6 2-8 0l-62-53c-2-2-5-2-8 0zM139 239c-4 0-7 3-7 7v253a7 7 0 0012 5l127-133v-1c2-2 2-7-1-9L143 241c-1-2-3-2-4-2zm461-4c-2-3-7-3-10 0L463 368v1c-2 2-2 7 1 9l127 120a7 7 0 0012-5V240c0-2-1-4-3-5zm-9-33H142a7 7 0 00-4 12l224 188c3 2 6 2 9 0l224-188a7 7 0 00-4-12z" fill="#FFF"/>
    <path d="M375 455c28 0 10-10 16-13 4-2 7 13 20-2 6-7-2-12 0-20 2-6 16-10 16-17 0-8-10-6-12-12 0-3 12 6 6-11s-13-3-13-6c1-7 5-14 0-16s-13-6-19-7c-1-1-12 7-14 4-2-4 15-12-8-12-24 0-13 3-13 8-1 4-4 4-7 4-9-1 0-12-17-4-20 9-3 11-7 17-2 2-1 6-3 8-5 5-14 6-14 10 0 27 7 7 7 17l4 7c0 2-7 5-6 7 6 14 6 5 12 9 2 2-12 3 0 16 11 13 19 7 28 7 10 0-2 6 24 6z" fill="#B40000"/>
    <path d="M337 367l12 65h-12v-65zm40 0l9 57v-57h8v65h-8l-18-51v14l7 37h-15l-23-65h14l9 57v-57h17z" fill="#FFF"/>
  </g>
</svg>
