<svg width="731px" height="737px" xmlns="http://www.w3.org/2000/svg">
  <g fill="none" fill-rule="evenodd">
    <path d="M686 0c25 0 45 20 45 45v647c0 25-20 45-45 45H45c-25 0-45-20-45-45V45C0 20 20 0 45 0h641zm-82 27H127C72 27 27 72 27 127v483c0 55 45 100 100 100h477c55 0 100-45 100-100V127c0-55-45-100-100-100z" fill="#FFF"/>
    <path fill="#FFF" d="M288 192h21L207 546h-21zM152 262h25L85 372l92 104h-25L61 372zM585 476h-25l92-110-92-104h25l91 104z"/>
    <path d="M307 630c9 0 18-1 26-3 2-1 86-3 92-5 7-2-79-1-77-2l2-2c2-2 210 0 210-6 0-3-209-6-212-9-8-6-23-10-41-10-26 0-47 8-47 19 0 10 21 18 47 18z" fill="#B40000"/>
    <path d="M500 157c24 11 39 27 44 51L440 453l-70 87-5-2-26 35 3 2-36 45 63-147c6-3 17-15 24-31 9-20 19-35 3-42s-19 11-28 32c-7 16-8 31-6 38l-61 145 7-56h4l7-39-5-2 14-113 104-245 6-3-52 124 7-10 4-3h1l48-114 4-2-49 115 3-2 2-1 48-113c14-3 29-1 46 6zm-84 123l-26 62 11 4 15-66zm13 6l-13-6-5 70 14 6 9-37 5-13-4 55 8 3 26-61-8-4-23 54 15-57-16-7-23 54 15-57z" fill="#FFF"/>
  </g>
</svg>
