<svg width="731px" height="731px" xmlns="http://www.w3.org/2000/svg">
  <g fill="none" fill-rule="evenodd">
    <path d="M686 0c25 0 45 20 45 45v641c0 25-20 45-45 45H45c-25 0-45-20-45-45V45C0 20 20 0 45 0h641zm-82 27H127c-55 0-99 44-100 98v479c0 55 44 99 98 100h479c55 0 99-44 100-98V127c0-55-45-100-100-100zm-60 113c-12 9-16 13-12 12 24-3 42 1 57 8l36 10-23-3 17 11c19 13 42 33 51 70 1 3 1 23-3 30l-8 13c0 4-5 11-4 15 9 16 21 37 21 50 0 4-8 8-24 11l2 7 13 19-8 24c-10 39-16 59-21 62-6 4-30 4-69 0l-13 22v18l-12 10v19l58 16 23 81c-45 29-80 42-104 38-61-10-95-62-161-81s-151-15-256 10c82-46 140-77 172-93 33-17 68-23 108-18l3-7c5-9 15-14 24-11l6 2 7-34c-11-4-21-24-29-58-2-10-14-30-35-60h19l-19-12 15-6-22-11 42-69c2-11 45-57 88-74 2-2 23-8 61-21zm-339-19c65 0 118 59 118 132 0 11-3 28-8 50l34 37-66 12c-32 9-58 14-78 14-65 0-118-41-118-113 0-73 53-132 118-132z" fill="#FFF"/>
    <path d="M139 170l27 148h-27V170zm90 0l20 129V170h19v148h-19l-39-111v35l14 76h-33l-52-148h32l20 129V170h38z" fill="#B40000"/>
  </g>
</svg>
